<?xml version="1.0" encoding="UTF-8"?>
<svg id="Calque_2" data-name="Calque 2" xmlns="http://www.w3.org/2000/svg" viewBox="0 0 170.3 63.33">
  <defs>
    <style>
      .cls-1 {
        fill: none;
        stroke-dasharray: 0 0 5 5;
        stroke-linecap: round;
        stroke-width: 4.5px;
      }

      .cls-1, .cls-2 {
        stroke: #5e37f6;
        stroke-miterlimit: 10;
      }

      .cls-2 {
        fill: #fff;
        stroke-width: .25px;
      }

      .cls-3 {
        fill: #5e37f6;
        stroke-width: 0px;
      }
    </style>
  </defs>
  <g id="Background_2" data-name="Background 2">
    <g>
      <path class="cls-2" d="M11.41,38.73c-1.09,0-2.2-.08-3.34-.24-1.14-.16-2.24-.38-3.28-.68-1.05-.29-1.98-.64-2.81-1.03-.72-.34-1.22-.81-1.51-1.39-.29-.58-.4-1.19-.32-1.81.08-.62.3-1.18.68-1.67.37-.49.86-.82,1.47-.99.61-.17,1.3-.09,2.07.26,1.01.48,2.15.86,3.42,1.13s2.48.42,3.62.42c1.72,0,2.94-.25,3.64-.74.7-.49,1.05-1.07,1.05-1.73,0-.61-.25-1.1-.74-1.47-.49-.37-1.36-.69-2.61-.96l-4.66-.99c-2.57-.56-4.48-1.49-5.71-2.81-1.23-1.31-1.85-3.02-1.85-5.11,0-1.41.29-2.67.88-3.78s1.39-2.07,2.43-2.87c1.03-.8,2.28-1.42,3.74-1.87,1.46-.45,3.06-.68,4.82-.68,1.38,0,2.78.16,4.2.48,1.42.32,2.65.78,3.68,1.39.61.32,1.05.76,1.33,1.33.28.57.38,1.15.32,1.73-.07.58-.28,1.1-.64,1.55-.36.45-.84.75-1.43.9s-1.31.05-2.13-.3c-.8-.34-1.67-.61-2.63-.8-.96-.19-1.88-.28-2.79-.28-.98,0-1.82.12-2.51.36-.69.24-1.21.57-1.57.99-.36.42-.54.91-.54,1.47s.24,1.03.72,1.41c.48.38,1.33.7,2.55.94l4.62.99c2.57.56,4.5,1.48,5.77,2.77,1.27,1.29,1.91,2.95,1.91,4.99,0,1.38-.28,2.62-.84,3.72-.56,1.1-1.36,2.06-2.41,2.87-1.05.81-2.3,1.43-3.74,1.85-1.45.42-3.07.64-4.88.64Z"/>
      <path class="cls-2" d="M36.36,38.73c-2.2,0-4.12-.42-5.75-1.25-1.63-.84-2.9-2.03-3.8-3.58-.9-1.55-1.35-3.38-1.35-5.47,0-1.59.25-3.02.76-4.28.5-1.26,1.24-2.33,2.21-3.2.97-.88,2.12-1.55,3.46-2.03s2.83-.72,4.48-.72c.77,0,1.58.08,2.43.24.85.16,1.72.44,2.63.84.64.24,1.08.6,1.33,1.09.25.49.36,1.01.34,1.57-.03.56-.19,1.05-.5,1.49-.31.44-.7.74-1.17.92-.48.17-1.02.13-1.63-.14-.42-.24-.87-.41-1.33-.52-.46-.11-.92-.16-1.37-.16-.69,0-1.31.11-1.85.34-.54.23-1,.55-1.37.98-.37.42-.66.93-.86,1.53-.2.6-.3,1.29-.3,2.09,0,1.51.38,2.71,1.15,3.58.77.88,1.84,1.31,3.22,1.31.45,0,.91-.05,1.37-.14.46-.09.91-.24,1.33-.46.61-.29,1.15-.35,1.63-.18.48.17.86.48,1.15.92.29.44.44.94.46,1.51.01.57-.11,1.1-.36,1.59-.25.49-.7.84-1.33,1.05-.88.4-1.73.68-2.57.84s-1.64.24-2.41.24Z"/>
      <path class="cls-2" d="M52.44,38.73c-1.51,0-2.85-.29-4.02-.86-1.17-.57-2.08-1.34-2.73-2.31-.65-.97-.97-2.08-.97-3.32,0-1.43.37-2.56,1.11-3.38.74-.82,1.94-1.41,3.6-1.77,1.66-.36,3.85-.54,6.59-.54h2.19v3.3h-2.19c-1.03,0-1.88.08-2.55.24-.66.16-1.15.38-1.47.68-.32.29-.48.69-.48,1.19,0,.61.21,1.11.64,1.51.42.4,1.06.6,1.91.6.64,0,1.21-.15,1.73-.44.52-.29.94-.7,1.25-1.21.32-.52.48-1.12.48-1.81v-4.62c0-.98-.25-1.66-.74-2.05-.49-.38-1.32-.58-2.49-.58-.66,0-1.39.07-2.17.22-.78.15-1.68.4-2.69.78-.72.27-1.33.31-1.85.12-.52-.19-.9-.5-1.15-.93-.25-.44-.38-.92-.38-1.45s.17-1.05.5-1.55c.33-.5.84-.88,1.53-1.11,1.27-.45,2.45-.77,3.54-.96,1.09-.19,2.07-.28,2.94-.28,2.17,0,3.97.32,5.39.96,1.42.64,2.48,1.6,3.18,2.89.7,1.29,1.05,2.94,1.05,4.95v8.08c0,1.14-.29,2.02-.86,2.65-.57.62-1.37.93-2.41.93-1.09,0-1.92-.31-2.49-.93-.57-.62-.86-1.51-.86-2.65v-1.07l.24.56c-.13.82-.44,1.55-.91,2.17-.48.62-1.1,1.11-1.87,1.47-.77.36-1.65.54-2.63.54Z"/>
      <path class="cls-2" d="M71.78,38.65c-1.17,0-2.05-.31-2.65-.93-.6-.62-.9-1.51-.9-2.65v-13.21c0-1.14.3-2.02.9-2.65.6-.62,1.45-.93,2.57-.93s1.93.31,2.53.93c.6.62.9,1.51.9,2.65v1.87l-.44-1.63c.64-1.25,1.55-2.21,2.73-2.89,1.18-.68,2.53-1.01,4.04-1.01s2.85.31,3.86.94,1.76,1.55,2.27,2.79c.5,1.23.76,2.82.76,4.76v8.4c0,1.14-.3,2.02-.91,2.65-.61.62-1.49.93-2.63.93s-2.02-.31-2.63-.93c-.61-.62-.92-1.51-.92-2.65v-8.12c0-1.17-.21-2.01-.62-2.53-.41-.52-1.01-.78-1.81-.78-1.06,0-1.91.34-2.55,1.01s-.96,1.59-.96,2.73v7.68c0,2.39-1.18,3.58-3.54,3.58Z"/>
      <path class="cls-3" d="M95.98,38.57c-.82,0-1.47-.23-1.93-.7-.46-.46-.7-1.13-.7-2.01V12.9c0-.88.23-1.54.7-2.01.46-.46,1.13-.7,2.01-.7h13.89c.69,0,1.21.17,1.55.52.34.35.52.84.52,1.47s-.17,1.17-.52,1.53c-.34.36-.86.54-1.55.54h-11.5v7.92h10.67c.66,0,1.17.17,1.53.52.36.35.54.84.54,1.47s-.18,1.17-.54,1.53c-.36.36-.87.54-1.53.54h-10.67v9.63c0,1.8-.82,2.71-2.47,2.71Z"/>
      <path class="cls-3" d="M121.89,38.65c-2.2,0-3.86-.63-4.97-1.89-1.11-1.26-1.67-3.11-1.67-5.55V12.39c0-.82.21-1.45.64-1.87.42-.42,1.03-.64,1.83-.64s1.41.21,1.85.64.66,1.05.66,1.87v18.58c0,1.22.26,2.12.78,2.71.52.58,1.25.88,2.21.88.21,0,.41,0,.6-.02.19-.01.37-.03.56-.06.37-.05.62.05.76.3.13.25.2.76.2,1.53,0,.66-.13,1.18-.4,1.55-.27.37-.7.6-1.31.68-.27.03-.54.05-.84.08-.29.03-.58.04-.88.04Z"/>
      <g>
        <path class="cls-3" d="M131.04,42.47c-.24.56-.32,1.09-.26,1.59,0,.05.03.09.03.13,1.06-.86,2.24-1.51,3.37-2.28.43-.3.84-.62,1.3-.88.15-.08.3-.14.44-.21.14-.12.28-.23.42-.35h0c.69-.6,1.24-1.35,1.6-2.18l7.25-16.55c.27-.58.36-1.12.28-1.61-.08-.49-.29-.89-.64-1.19-.35-.3-.81-.46-1.39-.46-.66,0-1.19.14-1.59.42-.4.28-.74.79-1.03,1.53l-4.89,11.97-4.78-11.94c-.29-.77-.62-1.29-.99-1.57-.37-.28-.86-.42-1.47-.42-.72,0-1.28.15-1.69.46-.41.31-.66.71-.74,1.21-.08.5,0,1.05.24,1.63l6.05,14c.47,1.08.46,2.3-.03,3.38l-1.49,3.31Z"/>
        <path class="cls-1" d="M134.44,39.28l-22.09,15.15c-12.71,8.71-29.42,8.88-42.3.42h0c-8.86-5.82-19.75-7.67-30.03-5.1l-11.55,2.89"/>
        <path class="cls-1" d="M168.05,2.25l-3.45,7.21c-1.98,4.15-6.28,6.68-10.87,6.42h0c-3.16-.18-6.25.96-8.52,3.16l-2.56,2.47"/>
      </g>
    </g>
  </g>
</svg>